M48
;Layer_Color=9474304
;FILE_FORMAT=2:5
INCH,LZ
;TYPE=PLATED
T1F00S00C0.02756
T2F00S00C0.02992
T3F00S00C0.03150
T4F00S00C0.03346
T5F00S00C0.03500
T6F00S00C0.03543
T7F00S00C0.03587
T8F00S00C0.03937
T9F00S00C0.04134
T10F00S00C0.04921
T11F00S00C0.05000
T12F00S00C0.05118
T13F00S00C0.05591
%
T01
X0222785Y0427734
Y0437577
X0223031Y0473522
Y0483364
T02
X042924Y02445
Y02545
Y02645
Y02745
Y02845
Y02945
Y03045
X04605
Y02945
Y02845
Y02745
Y02645
Y02545
Y02445
Y03145
X042924
T03
X0184539Y01915
X02495
X0306532Y0418207
X0316Y0379
X0380961
X0380393Y0366652
Y0415429
X0360531Y0400289
Y046525
X0445354Y0415429
Y0366652
X0306532Y0483167
T04
X0494343Y0176238
Y0190738
Y0205238
Y0219738
X0464342
Y0205238
Y0190738
Y0176238
X04155Y0254
X0399
Y0284
X04155
X02475
X02605Y0194
Y0164
X02475Y0314
X03875
Y0344
X03475Y04
X0334776
Y043
X03475
T05
X0373532Y0173823
Y0183823
Y0193823
Y0203823
Y0213823
Y0223823
Y0233823
Y0243823
Y0253323
Y0263823
Y0273823
Y0284323
Y0293823
Y0303823
X0283531
Y0293823
Y0283823
Y0273823
Y0263823
Y0254323
Y0243823
Y0233823
Y0223323
Y0213823
Y0203823
Y0193823
Y0183823
Y0173823
Y0313823
X0373532
T06
X021891Y0164197
Y0174197
X0248909
Y0164197
X0148148Y0306
X0138148
X0128148
X0127803Y0351008
X0137803
X0147803
X0148Y04065
X0138
X0128
T07
X0402118Y0453
X0432
T08
X0144311Y0448496
X0156122Y0467
X01325
T09
X0441Y01465
X0476332Y0274421
Y0284421
Y0294421
Y0304421
X0441039Y0219394
Y0209394
Y0199394
Y0189394
X0441Y01765
Y01665
Y01565
X02395Y0241473
Y0251473
Y0261473
Y0271473
X02595Y0274
Y0284
Y0294
Y0304
X0148Y03235
X0138
X0128
X0118
X029512Y03995
X030512
X031512
X032512
X0325Y03575
X0335
X0345
X0355
X0381Y0434511
Y0444511
Y0454511
Y0464511
X0284531Y0482429
X0274532
X0264531
X0254532
T10
X0252Y0341327
Y04555
T11
X02391Y0209
Y0219
X02745Y0426
X02845
X0324031Y0446362
X0334032
X0408549Y0399921
Y0389921
Y03515
Y03415
T12
X0175484Y0298724
X0223516
X023139Y0322346
X0223516Y0345969
X0175484
T13
X0185031Y0435864
Y0451022
Y0466179
Y0481337
M30
