G04*
G04 #@! TF.GenerationSoftware,Altium Limited,Altium Designer,18.0.9 (584)*
G04*
G04 Layer_Physical_Order=2*
G04 Layer_Color=16711680*
%FSLAX44Y44*%
%MOMM*%
G71*
G01*
G75*
%ADD18C,1.0000*%
%ADD41C,1.5000*%
%ADD42R,1.5000X1.5000*%
%ADD43R,1.5750X1.5750*%
%ADD44C,1.5750*%
%ADD45R,1.5750X1.5750*%
%ADD46R,1.1600X1.1600*%
%ADD47C,1.1600*%
%ADD48R,2.1300X2.1300*%
%ADD49C,2.1300*%
%ADD50C,1.8750*%
%ADD51R,1.8750X1.8750*%
%ADD52R,1.1000X1.1000*%
%ADD53C,1.1000*%
%ADD54C,1.2000*%
%ADD55C,1.4170*%
%ADD56C,1.4000*%
%ADD57C,1.9500*%
%ADD58C,1.7780*%
%ADD59O,3.0160X1.5080*%
%ADD60O,1.5080X3.0160*%
%ADD61C,2.9210*%
%ADD62C,1.7526*%
%ADD63R,1.7526X1.7526*%
%ADD64C,0.0000*%
D18*
X719720Y772160D02*
X720170Y771710D01*
X719720Y746760D02*
X720170Y746310D01*
X771340Y441510D02*
X840740Y372110D01*
X720170Y441510D02*
X771340D01*
X948770Y643440D02*
X1063440D01*
X902005Y888695D02*
Y955345D01*
X1220470Y445770D02*
X1253755D01*
X1170940Y397510D02*
X1217930Y444500D01*
X1253755Y445770D02*
X1255630Y447645D01*
X1224485Y589280D02*
X1255630Y558135D01*
X1122020Y589280D02*
X1224485D01*
X1090270Y621030D02*
X1122020Y589280D01*
X591820Y586740D02*
X640080D01*
X565150Y613410D02*
X591820Y586740D01*
X565150Y613410D02*
Y689610D01*
X596900Y721360D01*
X628650D01*
X915220Y567240D02*
X916940Y568960D01*
X720170Y567240D02*
X915220D01*
X916940Y568960D02*
Y633730D01*
X948770Y466910D02*
X1003750D01*
X720170D02*
X948770D01*
X825805Y1116725D02*
X850330Y1092200D01*
X825805Y1116725D02*
Y1130995D01*
Y1014730D02*
Y1116725D01*
X823040Y1133760D02*
X825805Y1130995D01*
X825500Y1014425D02*
X825805Y1014730D01*
X825500Y908050D02*
Y1014425D01*
X1255630Y521305D02*
Y558135D01*
Y484475D02*
Y521305D01*
Y447645D02*
Y484475D01*
X1120140Y397510D02*
X1170940D01*
X1003750Y466910D02*
X1073150Y397510D01*
X1120140D01*
X1079500Y422910D02*
X1120140D01*
Y448310D02*
X1122680D01*
X1085850D02*
X1120140D01*
X1016450Y517710D02*
X1085850Y448310D01*
X948770Y517710D02*
X1016450D01*
X840740Y372110D02*
X1120140D01*
X478790Y855980D02*
Y892810D01*
Y678180D02*
Y855980D01*
X444500Y821690D02*
X478790Y855980D01*
X375920Y821690D02*
X444500D01*
X375920Y995680D02*
X478790Y892810D01*
X375920Y995680D02*
Y1032510D01*
X440690Y640080D02*
X478790Y678180D01*
X440690Y462280D02*
Y640080D01*
Y462280D02*
X515620Y387350D01*
X666010D01*
X720170Y441510D01*
X640080Y1108710D02*
Y1156970D01*
Y1088390D02*
Y1108710D01*
X539750Y988060D02*
X640080Y1088390D01*
X539750Y786740D02*
Y988060D01*
Y786740D02*
X567730Y758760D01*
X628290Y878760D02*
X640080Y866970D01*
X567730Y878760D02*
X628290D01*
X640080Y866970D02*
X735770Y962660D01*
X802640D01*
X565875Y1086445D02*
X572095D01*
X588010Y1102360D01*
Y1158240D01*
X613410Y1183640D01*
X773160D01*
X823040Y1133760D01*
X666750Y1082040D02*
X697230D01*
X640080Y1108710D02*
X666750Y1082040D01*
X722630Y1081590D02*
X759245D01*
X936989Y960506D02*
Y1025979D01*
X966199Y1055189D01*
X1027549Y1116539D01*
Y1149350D01*
X966199Y931296D02*
X1013460Y884035D01*
X936989Y960506D02*
X966199Y931296D01*
X754090Y1202745D02*
X778590Y1227245D01*
X566500Y1202745D02*
X754090D01*
X659950Y543110D02*
X720170D01*
X719720Y695960D02*
X720170Y695510D01*
X659130Y695960D02*
X719720D01*
Y721360D02*
X720170Y720910D01*
X659130Y721360D02*
X719720D01*
X644856Y670110D02*
X720170D01*
X625424Y689542D02*
X644856Y670110D01*
X659130Y772160D02*
X659580Y771710D01*
X608330Y689542D02*
X625424D01*
X629611Y664142D02*
X647773Y645980D01*
X608330Y664142D02*
X629611D01*
X647773Y645980D02*
X720170D01*
X653230Y619310D02*
X720170D01*
X633798Y638742D02*
X653230Y619310D01*
X608330Y638742D02*
X633798D01*
X608330Y613342D02*
X634691D01*
X654123Y593910D01*
X720170D01*
X1169670Y798830D02*
X1191260Y820420D01*
Y910590D01*
X1139190Y962660D02*
X1191260Y910590D01*
X967640Y962660D02*
X1139190D01*
X1209884Y722430D02*
X1235510D01*
X1262380Y749300D01*
Y990419D01*
X1103449Y1149350D02*
X1262380Y990419D01*
X1037714Y990400D02*
X1174950D01*
X1242060Y923290D01*
Y759460D02*
Y923290D01*
X1230430Y747830D02*
X1242060Y759460D01*
X1209884Y747830D02*
X1230430D01*
X1140220Y785100D02*
Y825740D01*
X1098550Y867410D02*
X1140220Y825740D01*
X1037714Y867410D02*
X1098550D01*
X1120140Y666750D02*
Y808990D01*
X1096010Y833120D02*
X1120140Y808990D01*
X1028700Y833120D02*
X1096010D01*
X1013460Y848360D02*
X1028700Y833120D01*
X1013460Y848360D02*
Y884035D01*
X1091810Y1015800D02*
X1131199Y1055189D01*
X1037714Y1015800D02*
X1091810D01*
X1092713Y892810D02*
X1131199Y931296D01*
X1037714Y892810D02*
X1092713D01*
X1120140Y666750D02*
X1165860Y621030D01*
X1027549Y1149350D02*
Y1207651D01*
X981710Y1253490D02*
X1027549Y1207651D01*
X750830Y1253490D02*
X981710D01*
X722710Y1225370D02*
X750830Y1253490D01*
X952500Y1205230D02*
X967740Y1189990D01*
X800605Y1205230D02*
X952500D01*
X778590Y1227245D02*
X800605Y1205230D01*
X942369Y1103659D02*
X967740D01*
X915750Y1077040D02*
X942369Y1103659D01*
X915750Y1016734D02*
Y1077040D01*
X967740Y1103659D02*
Y1129059D01*
Y1154459D01*
Y1179859D01*
Y1189990D01*
X1085850Y621030D02*
X1090270D01*
X1169670Y697230D02*
X1169870Y697030D01*
X1209884D01*
X1169670Y722630D02*
X1169870Y722430D01*
X1209884D01*
X1169670Y748030D02*
X1169870Y747830D01*
X1209884D01*
X1169670Y773430D02*
X1169870Y773230D01*
X1209884D01*
X1151890Y773430D02*
X1169670D01*
X1140220Y785100D02*
X1151890Y773430D01*
X1165860Y621030D02*
X1169670D01*
X988060Y797560D02*
X989330Y798830D01*
X1090270D01*
X1013460Y721360D02*
X1065530Y773430D01*
X1090270D01*
X1055370Y721360D02*
X1082040Y748030D01*
X1090270D01*
X948770Y695510D02*
X1029520D01*
X1055370Y721360D01*
X1063440Y643440D02*
X1085850Y621030D01*
X1012640Y722180D02*
X1013460Y721360D01*
X948770Y722180D02*
X1012640D01*
X916940Y633730D02*
X926650Y643440D01*
X948770D01*
X902005Y888695D02*
X916940Y873760D01*
X984250D01*
X948770Y797110D02*
X949220Y797560D01*
X988060D01*
X749605Y1014730D02*
X775005D01*
X800405D01*
X825805D01*
X902150Y746310D02*
X948770D01*
X851205Y797255D02*
X902150Y746310D01*
X851205Y797255D02*
Y914400D01*
X917390Y771710D02*
X948770D01*
X876605Y812495D02*
X917390Y771710D01*
X876605Y812495D02*
Y914400D01*
X882650Y985520D02*
Y1016000D01*
X876605Y979475D02*
X882650Y985520D01*
X915750Y969090D02*
Y1016734D01*
X902005Y955345D02*
X915750Y969090D01*
X876605Y914400D02*
Y979475D01*
X850330Y915275D02*
X851205Y914400D01*
X850330Y915275D02*
Y1016000D01*
X565875Y1111445D02*
X566500Y1112070D01*
X561525Y1107095D02*
X565875Y1111445D01*
X868335Y1179830D02*
X916940D01*
X850330Y1092200D02*
X882650D01*
X640080Y586740D02*
X659580Y567240D01*
X720170D01*
X1207809Y699105D02*
X1209884Y697030D01*
X1207809Y775305D02*
X1209884Y773230D01*
X1010100Y492310D02*
X1079500Y422910D01*
X948770Y492310D02*
X1010100D01*
X1146015Y481060D02*
X1179430Y447645D01*
X1120240Y481060D02*
X1146015D01*
X1157445Y506460D02*
X1179430Y484475D01*
X1120240Y506460D02*
X1157445D01*
X1168875Y531860D02*
X1179430Y521305D01*
X1120240Y531860D02*
X1168875D01*
X1086120Y481060D02*
X1120240D01*
X1024070Y543110D02*
X1086120Y481060D01*
X948770Y543110D02*
X1024070D01*
X1092470Y506460D02*
X1120240D01*
X1030420Y568510D02*
X1092470Y506460D01*
X948770Y568510D02*
X1030420D01*
X1100090Y531860D02*
X1120240D01*
X1038040Y593910D02*
X1100090Y531860D01*
X948770Y593910D02*
X1038040D01*
X1058190Y619310D02*
X1120240Y557260D01*
X948770Y619310D02*
X1058190D01*
X1120240Y557260D02*
X1121115Y558135D01*
X1179430D01*
X556030Y442460D02*
X599980Y486410D01*
X633730D01*
X556030Y417060D02*
Y442460D01*
X632460Y416830D02*
Y441960D01*
Y416830D02*
X632730Y416560D01*
X632230Y417060D02*
X632460Y416830D01*
X632730Y416560D02*
X661670D01*
X633730Y486410D02*
X653230Y466910D01*
X720170D01*
X661670Y492760D02*
X662120Y492310D01*
X720170D01*
X468730Y486410D02*
X538580Y556260D01*
X607315D01*
Y530860D02*
X647700D01*
X659950Y543110D01*
X719282Y593022D02*
X720170Y593910D01*
X718012Y643822D02*
X720170Y645980D01*
X719282Y669222D02*
X720170Y670110D01*
X848440Y1133760D02*
Y1159935D01*
X868335Y1179830D01*
X325120Y1032510D02*
Y1159155D01*
X319010Y1165265D02*
X325120Y1159155D01*
X319010Y1165265D02*
Y1202930D01*
X338675Y1222595D01*
X469980D01*
X350520Y1032510D02*
Y1085850D01*
X371765Y1107095D01*
X469980D01*
X429855Y1086445D02*
X565875D01*
X375920Y1032510D02*
X429855Y1086445D01*
X671910Y1225370D02*
X673180Y1224100D01*
X469980Y1107095D02*
X561525D01*
X566500Y1112070D02*
Y1202745D01*
X759245Y1081590D02*
X778590Y1062245D01*
X697310Y1225370D02*
X722710D01*
X671910D02*
X697310D01*
X646510D02*
X671910D01*
X644135Y1227745D02*
X646510Y1225370D01*
X566500Y1227745D02*
X644135D01*
X561350Y1222595D02*
X566500Y1227745D01*
X469980Y1222595D02*
X561350D01*
X458030Y1186180D02*
X469980Y1174230D01*
X396550Y1186180D02*
X458030D01*
X466530Y1139180D02*
X469980Y1135730D01*
X366550Y1139180D02*
X466530D01*
X366550D02*
Y1156180D01*
X336550Y1186180D02*
X366550Y1156180D01*
X299720Y981710D02*
X350520Y1032510D01*
X299720Y821690D02*
Y981710D01*
X350520Y821690D02*
Y855980D01*
X375420Y880880D01*
Y891560D01*
X369375Y758760D02*
X445730D01*
X350895Y777240D02*
X369375Y758760D01*
X350520Y803015D02*
X376295Y777240D01*
X350520Y803015D02*
Y821690D01*
X324620Y819150D02*
Y891560D01*
X325120Y777615D02*
X325495Y777240D01*
X325120Y777615D02*
Y821690D01*
X350020Y891560D02*
Y910090D01*
X360680Y920750D01*
X403740D01*
X445730Y878760D01*
X587730Y818760D02*
X608930Y797560D01*
X647700D01*
X648150Y797110D01*
X720170D01*
X259080Y354330D02*
X1308100D01*
X259080Y1266190D02*
X259080Y354330D01*
X259080Y1266190D02*
X1309370D01*
Y353060D02*
Y1266190D01*
D41*
X375420Y891560D02*
D03*
X350020D02*
D03*
X350895Y777240D02*
D03*
X376295D02*
D03*
X632230Y417060D02*
D03*
Y442460D02*
D03*
X556030Y417060D02*
D03*
D42*
X324620Y891560D02*
D03*
X325495Y777240D02*
D03*
X556030Y442460D02*
D03*
D43*
X375920Y821690D02*
D03*
X825500Y908050D02*
D03*
X722710Y1225370D02*
D03*
X825805Y1014730D02*
D03*
D44*
X350520Y821690D02*
D03*
X325120D02*
D03*
X299720D02*
D03*
X1120240Y531860D02*
D03*
Y506460D02*
D03*
Y481060D02*
D03*
X850900Y908050D02*
D03*
X876300D02*
D03*
X901700D02*
D03*
X608330Y638742D02*
D03*
Y664142D02*
D03*
Y689542D02*
D03*
X697310Y1225370D02*
D03*
X671910D02*
D03*
X646510D02*
D03*
X967740Y1154459D02*
D03*
Y1129059D02*
D03*
Y1103659D02*
D03*
X800405Y1014730D02*
D03*
X775005D02*
D03*
X749605D02*
D03*
X1209884Y747830D02*
D03*
Y722430D02*
D03*
Y697030D02*
D03*
X1120140Y397510D02*
D03*
Y422910D02*
D03*
Y448310D02*
D03*
X659130Y721360D02*
D03*
Y746760D02*
D03*
Y772160D02*
D03*
D45*
X1120240Y557260D02*
D03*
X608330Y613342D02*
D03*
X967740Y1179859D02*
D03*
X1209884Y773230D02*
D03*
X1120140Y372110D02*
D03*
X659130Y695960D02*
D03*
D46*
X1090270Y798830D02*
D03*
D47*
Y773430D02*
D03*
Y748030D02*
D03*
Y722630D02*
D03*
Y697230D02*
D03*
Y671830D02*
D03*
Y646430D02*
D03*
Y621030D02*
D03*
X1169670D02*
D03*
Y646430D02*
D03*
Y671830D02*
D03*
Y697230D02*
D03*
Y722630D02*
D03*
Y748030D02*
D03*
Y773430D02*
D03*
Y798830D02*
D03*
D48*
X469980Y1222595D02*
D03*
D49*
Y1184095D02*
D03*
Y1145595D02*
D03*
Y1107095D02*
D03*
D50*
X640080Y866970D02*
D03*
D51*
Y1156970D02*
D03*
D52*
X566500Y1227745D02*
D03*
X565875Y1086445D02*
D03*
D53*
X566500Y1202745D02*
D03*
X565875Y1111445D02*
D03*
D54*
X778590Y1227245D02*
D03*
Y1062245D02*
D03*
X915750Y1016734D02*
D03*
Y1181734D02*
D03*
X633730Y486410D02*
D03*
X468730D02*
D03*
X966199Y931296D02*
D03*
X1131199D02*
D03*
X966199Y1055189D02*
D03*
X1131199D02*
D03*
X802640Y962660D02*
D03*
X967640D02*
D03*
D55*
X1021380Y1150620D02*
D03*
X1097280D02*
D03*
D56*
X375920Y1032510D02*
D03*
X350520D02*
D03*
X325120D02*
D03*
X1179430Y558135D02*
D03*
X1255630D02*
D03*
X850330Y1016000D02*
D03*
Y1092200D02*
D03*
X1179430Y447645D02*
D03*
X1255630D02*
D03*
X1013460Y645160D02*
D03*
Y721360D02*
D03*
X628650Y797560D02*
D03*
Y721360D02*
D03*
X661670Y492760D02*
D03*
Y416560D02*
D03*
X1055370Y645160D02*
D03*
Y721360D02*
D03*
X1179430Y521305D02*
D03*
X1255630D02*
D03*
X1179430Y484475D02*
D03*
X1255630D02*
D03*
X882650Y1016000D02*
D03*
Y1092200D02*
D03*
X984250Y873760D02*
D03*
Y797560D02*
D03*
D57*
X587730Y818760D02*
D03*
X567730Y758760D02*
D03*
X445730D02*
D03*
Y878760D02*
D03*
X567730D02*
D03*
D58*
X697230Y1082040D02*
D03*
X722630D02*
D03*
X823040Y1133760D02*
D03*
X848440D02*
D03*
X607315Y530860D02*
D03*
Y556260D02*
D03*
X1037714Y1015800D02*
D03*
Y990400D02*
D03*
Y892810D02*
D03*
Y867410D02*
D03*
D59*
X366550Y1139180D02*
D03*
D60*
X336550Y1186180D02*
D03*
X396550D02*
D03*
D61*
X938610Y837750D02*
D03*
X730330D02*
D03*
X938610Y400870D02*
D03*
X730330D02*
D03*
D62*
X720170Y441510D02*
D03*
Y543110D02*
D03*
Y517710D02*
D03*
Y492310D02*
D03*
Y593910D02*
D03*
Y619310D02*
D03*
Y645980D02*
D03*
Y797110D02*
D03*
Y771710D02*
D03*
Y746310D02*
D03*
Y720910D02*
D03*
Y695510D02*
D03*
Y670110D02*
D03*
X948770Y441510D02*
D03*
Y543110D02*
D03*
Y517710D02*
D03*
Y492310D02*
D03*
Y568510D02*
D03*
Y593910D02*
D03*
Y619310D02*
D03*
Y797110D02*
D03*
Y771710D02*
D03*
Y746310D02*
D03*
Y722180D02*
D03*
Y695510D02*
D03*
Y670110D02*
D03*
D63*
X720170Y466910D02*
D03*
Y567240D02*
D03*
X948770Y466910D02*
D03*
Y643440D02*
D03*
D64*
X1169059Y773230D02*
X1169870D01*
M02*
