M48
;Layer_Color=9474304
;FILE_FORMAT=2:5
INCH,LZ
T15F00S00C0.20000
%
G90
G05
T15
G00X0519488Y0126699
M15
G01X0521396Y012729
G01X0523148Y0128248
G01X0524676Y0129535
G01X0525917Y01311
G01X0526822Y0132881
G01X0527356Y0134806
G01X05275Y01365
G01X05275Y05005
G01X05273Y0502488
G01X052671Y0504396
G01X0525752Y0506148
G01X0524465Y0507676
G01X05229Y0508917
G01X0521119Y0509822
G01X0519194Y0510355
G01X05175Y05105
G01X00995Y05105
G01X0097512Y05103
G01X0095604Y050971
G01X0093852Y0508752
G01X0092324Y0507465
G01X0091083Y05059
G01X0090178Y0504119
G01X0089645Y0502194
G01X00895Y05005
G01X00895Y01365
G01X00897Y0134512
G01X009029Y0132604
G01X0091248Y0130852
G01X0092535Y0129324
G01X00941Y0128083
G01X0095881Y0127178
G01X0097806Y0126645
G01X00995Y01265
G01X05175Y01265
G01X0519488Y0126699
M16
M17
M30
