G04*
G04 #@! TF.GenerationSoftware,Altium Limited,Altium Designer,18.0.9 (584)*
G04*
G04 Layer_Color=8388736*
%FSLAX44Y44*%
%MOMM*%
G71*
G01*
G75*
%ADD18C,1.0000*%
%ADD19C,1.7032*%
%ADD20R,1.7032X1.7032*%
%ADD21R,1.7782X1.7782*%
%ADD22C,1.7782*%
%ADD23R,1.7782X1.7782*%
%ADD24R,1.3632X1.3632*%
%ADD25C,1.3632*%
%ADD26R,2.3332X2.3332*%
%ADD27C,2.3332*%
%ADD28C,2.0782*%
%ADD29R,2.0782X2.0782*%
%ADD30R,1.3032X1.3032*%
%ADD31C,1.3032*%
%ADD32C,1.4032*%
%ADD33C,1.6202*%
%ADD34C,1.6032*%
%ADD35C,2.1532*%
%ADD36C,1.9812*%
%ADD37O,3.2192X1.7112*%
%ADD38O,1.7112X3.2192*%
%ADD39C,1.9558*%
%ADD40R,1.9558X1.9558*%
D18*
X259080Y354330D02*
X1308100D01*
X259080Y1266190D02*
X259080Y354330D01*
X259080Y1266190D02*
X1309370D01*
Y353060D02*
Y1266190D01*
D19*
X375420Y891560D02*
D03*
X350020D02*
D03*
X350895Y777240D02*
D03*
X376295D02*
D03*
X632230Y417060D02*
D03*
Y442460D02*
D03*
X556030Y417060D02*
D03*
D20*
X324620Y891560D02*
D03*
X325495Y777240D02*
D03*
X556030Y442460D02*
D03*
D21*
X375920Y821690D02*
D03*
X825500Y908050D02*
D03*
X722710Y1225370D02*
D03*
X825805Y1014730D02*
D03*
D22*
X350520Y821690D02*
D03*
X325120D02*
D03*
X299720D02*
D03*
X1120240Y531860D02*
D03*
Y506460D02*
D03*
Y481060D02*
D03*
X850900Y908050D02*
D03*
X876300D02*
D03*
X901700D02*
D03*
X608330Y638742D02*
D03*
Y664142D02*
D03*
Y689542D02*
D03*
X697310Y1225370D02*
D03*
X671910D02*
D03*
X646510D02*
D03*
X967740Y1154459D02*
D03*
Y1129059D02*
D03*
Y1103659D02*
D03*
X800405Y1014730D02*
D03*
X775005D02*
D03*
X749605D02*
D03*
X1209884Y747830D02*
D03*
Y722430D02*
D03*
Y697030D02*
D03*
X1120140Y397510D02*
D03*
Y422910D02*
D03*
Y448310D02*
D03*
X659130Y721360D02*
D03*
Y746760D02*
D03*
Y772160D02*
D03*
D23*
X1120240Y557260D02*
D03*
X608330Y613342D02*
D03*
X967740Y1179859D02*
D03*
X1209884Y773230D02*
D03*
X1120140Y372110D02*
D03*
X659130Y695960D02*
D03*
D24*
X1090270Y798830D02*
D03*
D25*
Y773430D02*
D03*
Y748030D02*
D03*
Y722630D02*
D03*
Y697230D02*
D03*
Y671830D02*
D03*
Y646430D02*
D03*
Y621030D02*
D03*
X1169670D02*
D03*
Y646430D02*
D03*
Y671830D02*
D03*
Y697230D02*
D03*
Y722630D02*
D03*
Y748030D02*
D03*
Y773430D02*
D03*
Y798830D02*
D03*
D26*
X469980Y1222595D02*
D03*
D27*
Y1184095D02*
D03*
Y1145595D02*
D03*
Y1107095D02*
D03*
D28*
X640080Y866970D02*
D03*
D29*
Y1156970D02*
D03*
D30*
X566500Y1227745D02*
D03*
X565875Y1086445D02*
D03*
D31*
X566500Y1202745D02*
D03*
X565875Y1111445D02*
D03*
D32*
X778590Y1227245D02*
D03*
Y1062245D02*
D03*
X915750Y1016734D02*
D03*
Y1181734D02*
D03*
X633730Y486410D02*
D03*
X468730D02*
D03*
X966199Y931296D02*
D03*
X1131199D02*
D03*
X966199Y1055189D02*
D03*
X1131199D02*
D03*
X802640Y962660D02*
D03*
X967640D02*
D03*
D33*
X1021380Y1150620D02*
D03*
X1097280D02*
D03*
D34*
X375920Y1032510D02*
D03*
X350520D02*
D03*
X325120D02*
D03*
X1179430Y558135D02*
D03*
X1255630D02*
D03*
X850330Y1016000D02*
D03*
Y1092200D02*
D03*
X1179430Y447645D02*
D03*
X1255630D02*
D03*
X1013460Y645160D02*
D03*
Y721360D02*
D03*
X628650Y797560D02*
D03*
Y721360D02*
D03*
X661670Y492760D02*
D03*
Y416560D02*
D03*
X1055370Y645160D02*
D03*
Y721360D02*
D03*
X1179430Y521305D02*
D03*
X1255630D02*
D03*
X1179430Y484475D02*
D03*
X1255630D02*
D03*
X882650Y1016000D02*
D03*
Y1092200D02*
D03*
X984250Y873760D02*
D03*
Y797560D02*
D03*
D35*
X587730Y818760D02*
D03*
X567730Y758760D02*
D03*
X445730D02*
D03*
Y878760D02*
D03*
X567730D02*
D03*
D36*
X697230Y1082040D02*
D03*
X722630D02*
D03*
X823040Y1133760D02*
D03*
X848440D02*
D03*
X607315Y530860D02*
D03*
Y556260D02*
D03*
X1037714Y1015800D02*
D03*
Y990400D02*
D03*
Y892810D02*
D03*
Y867410D02*
D03*
D37*
X366550Y1139180D02*
D03*
D38*
X336550Y1186180D02*
D03*
X396550D02*
D03*
D39*
X720170Y441510D02*
D03*
Y543110D02*
D03*
Y517710D02*
D03*
Y492310D02*
D03*
Y593910D02*
D03*
Y619310D02*
D03*
Y645980D02*
D03*
Y797110D02*
D03*
Y771710D02*
D03*
Y746310D02*
D03*
Y720910D02*
D03*
Y695510D02*
D03*
Y670110D02*
D03*
X948770Y441510D02*
D03*
Y543110D02*
D03*
Y517710D02*
D03*
Y492310D02*
D03*
Y568510D02*
D03*
Y593910D02*
D03*
Y619310D02*
D03*
Y797110D02*
D03*
Y771710D02*
D03*
Y746310D02*
D03*
Y722180D02*
D03*
Y695510D02*
D03*
Y670110D02*
D03*
D40*
X720170Y466910D02*
D03*
Y567240D02*
D03*
X948770Y466910D02*
D03*
Y643440D02*
D03*
M02*
