G04*
G04 #@! TF.GenerationSoftware,Altium Limited,Altium Designer,18.0.9 (584)*
G04*
G04 Layer_Physical_Order=1*
G04 Layer_Color=255*
%FSLAX44Y44*%
%MOMM*%
G71*
G01*
G75*
%ADD10C,0.2000*%
%ADD11C,0.1000*%
%ADD12C,0.1270*%
%ADD13C,0.4000*%
%ADD16C,0.0001*%
%ADD17C,0.0500*%
%ADD42C,0.5000*%
%ADD43C,1.2000*%
%ADD44C,1.5240*%
%ADD45R,1.5000X1.5000*%
%ADD46C,1.5000*%
%ADD47R,1.5750X1.5750*%
%ADD48C,1.5750*%
%ADD49R,1.5750X1.5750*%
%ADD50R,1.1600X1.1600*%
%ADD51C,1.1600*%
%ADD52C,2.1300*%
%ADD53R,2.1300X2.1300*%
%ADD54R,1.8750X1.8750*%
%ADD55C,1.8750*%
%ADD56C,1.1000*%
%ADD57R,1.1000X1.1000*%
%ADD58C,1.4170*%
%ADD59C,1.4000*%
%ADD60C,1.4500*%
%ADD61C,1.9500*%
%ADD62C,1.7780*%
%ADD63O,3.0160X1.5080*%
%ADD64O,1.5080X3.0160*%
%ADD65C,2.9210*%
%ADD66C,1.7526*%
%ADD67R,1.7526X1.7526*%
D10*
X1112809Y1189800D02*
G03*
X1250709Y1189800I68950J0D01*
G01*
D02*
G03*
X1112809Y1189800I-68950J-1530D01*
G01*
X284970Y948345D02*
X400970D01*
Y1033345D01*
X284970D02*
X400970D01*
X284970Y948345D02*
Y1033345D01*
X347280Y546800D02*
X450280D01*
Y443800D02*
Y546800D01*
X347280Y443800D02*
X450280D01*
X347280D02*
Y546800D01*
X596730Y741430D02*
Y893430D01*
X406730D02*
X596730D01*
X406730Y741430D02*
Y893430D01*
Y741430D02*
X596730D01*
D11*
X600500Y1195260D02*
G03*
X600500Y1195260I-34000J0D01*
G01*
Y1099570D02*
G03*
X600500Y1099570I-34000J0D01*
G01*
X518730Y473910D02*
X583730D01*
X518730D02*
Y498910D01*
X583730D01*
Y473910D02*
Y498910D01*
Y486410D02*
X633730D01*
X468730D02*
X518730D01*
X315310Y891755D02*
X342710D01*
Y790655D02*
Y891755D01*
X315310Y790655D02*
X342710D01*
X315310D02*
Y891755D01*
X1106540Y542645D02*
X1133940D01*
Y441545D02*
Y542645D01*
X1106540Y441545D02*
X1133940D01*
X1106540D02*
Y542645D01*
X848215Y900700D02*
Y928100D01*
X949315D01*
Y900700D02*
Y928100D01*
X848215Y900700D02*
X949315D01*
X594630Y593340D02*
X622030D01*
X594630D02*
Y694440D01*
X622030D01*
Y593340D02*
Y694440D01*
X735160Y1205845D02*
Y1233245D01*
X634060Y1205845D02*
X735160D01*
X634060D02*
Y1233245D01*
X735160D01*
X1056724Y1147685D02*
Y1175085D01*
X955624Y1147685D02*
X1056724D01*
X955624D02*
Y1175085D01*
X1056724D01*
Y1056245D02*
Y1083645D01*
X955624Y1056245D02*
X1056724D01*
X955624D02*
Y1083645D01*
X1056724D01*
X1290164Y764090D02*
X1317564D01*
Y662990D02*
Y764090D01*
X1290164Y662990D02*
X1317564D01*
X1290164D02*
Y764090D01*
X1133940Y379490D02*
Y406890D01*
X1032840Y379490D02*
X1133940D01*
X1032840D02*
Y406890D01*
X1133940D01*
X1185714Y788665D02*
X1256814D01*
Y591765D02*
Y788665D01*
X1185714Y591765D02*
X1256814D01*
X1185714D02*
Y788665D01*
Y775965D02*
X1198414Y788665D01*
X477430Y1231180D02*
X496680Y1211930D01*
X445880Y1231180D02*
X496680D01*
X445880Y1078780D02*
Y1231180D01*
Y1078780D02*
X496680D01*
Y1231180D01*
X531880Y969450D02*
X621880D01*
Y919400D02*
Y969450D01*
X531880Y919400D02*
X621880D01*
X531880D02*
Y969450D01*
Y944430D02*
X556900Y969450D01*
X431880Y944430D02*
X531880D01*
X621880D02*
X721880D01*
X791090Y1112245D02*
Y1177245D01*
X766090Y1112245D02*
X791090D01*
X766090D02*
Y1177245D01*
X791090D01*
X778590D02*
Y1227245D01*
Y1062245D02*
Y1112245D01*
X903250D02*
Y1177245D01*
X928250D01*
Y1112245D02*
Y1177245D01*
X903250Y1112245D02*
X928250D01*
X915750Y1062245D02*
Y1112245D01*
Y1177245D02*
Y1227245D01*
X1188384Y943796D02*
X1253384D01*
Y918796D02*
Y943796D01*
X1188384Y918796D02*
X1253384D01*
X1188384D02*
Y943796D01*
X1138384Y931296D02*
X1188384D01*
X1253384D02*
X1303384D01*
X1188384Y1067689D02*
X1253384D01*
Y1042689D02*
Y1067689D01*
X1188384Y1042689D02*
X1253384D01*
X1188384D02*
Y1067689D01*
X1138384Y1055189D02*
X1188384D01*
X1253384D02*
X1303384D01*
X1103469Y1115850D02*
X1251369D01*
Y1263750D01*
X1103469D02*
X1251369D01*
X1103469Y1115850D02*
Y1263750D01*
X274970Y930345D02*
X410970D01*
Y1043345D01*
X274970D02*
X410970D01*
X274970Y930345D02*
Y1043345D01*
X606730Y731430D02*
Y903430D01*
X396730D02*
X606730D01*
X396730Y731430D02*
Y903430D01*
Y731430D02*
X606730D01*
D12*
X259550Y1141180D02*
Y1231180D01*
X403550Y1141180D02*
Y1231180D01*
X259550D02*
X403550D01*
X259550Y1141180D02*
X403550D01*
X259550D02*
Y1231180D01*
X403550Y1141180D02*
Y1231180D01*
X259550D02*
X403550D01*
X259550Y1141180D02*
X403550D01*
X259550D02*
Y1231180D01*
X403550D01*
X385050Y1141180D02*
X403550D01*
Y1201680D02*
Y1231180D01*
X259550Y1141180D02*
X349050D01*
X403550D02*
Y1171680D01*
D13*
X414550Y1186180D02*
G03*
X414550Y1186180I-2000J0D01*
G01*
D16*
X358550Y1144180D02*
X374550D01*
X358550Y1134180D02*
Y1144180D01*
Y1134180D02*
X374550D01*
Y1144180D01*
X331550Y1178180D02*
Y1194180D01*
Y1178180D02*
X341550D01*
Y1194180D01*
X331550D02*
X341550D01*
X391550Y1178180D02*
Y1194180D01*
Y1178180D02*
X401550D01*
Y1194180D01*
X391550D02*
X401550D01*
D17*
X605500Y1195260D02*
G03*
X605500Y1195260I-39000J0D01*
G01*
Y1099570D02*
G03*
X605500Y1099570I-39000J0D01*
G01*
X460230Y470410D02*
X642230D01*
X460230D02*
Y502410D01*
X642230D01*
Y470410D02*
Y502410D01*
X312810Y894255D02*
X345210D01*
Y788155D02*
Y894255D01*
X312810Y788155D02*
X345210D01*
X312810D02*
Y894255D01*
X1104040Y545145D02*
X1136440D01*
Y439045D02*
Y545145D01*
X1104040Y439045D02*
X1136440D01*
X1104040D02*
Y545145D01*
X845715Y898200D02*
Y930600D01*
X951815D01*
Y898200D02*
Y930600D01*
X845715Y898200D02*
X951815D01*
X592130Y590840D02*
X624530D01*
X592130D02*
Y696940D01*
X624530D01*
Y590840D02*
Y696940D01*
X737660Y1203345D02*
Y1235745D01*
X631560Y1203345D02*
X737660D01*
X631560D02*
Y1235745D01*
X737660D01*
X1059224Y1145185D02*
Y1177585D01*
X953124Y1145185D02*
X1059224D01*
X953124D02*
Y1177585D01*
X1059224D01*
Y1053745D02*
Y1086145D01*
X953124Y1053745D02*
X1059224D01*
X953124D02*
Y1086145D01*
X1059224D01*
X1287664Y766590D02*
X1320064D01*
Y660490D02*
Y766590D01*
X1287664Y660490D02*
X1320064D01*
X1287664D02*
Y766590D01*
X1136440Y376990D02*
Y409390D01*
X1030340Y376990D02*
X1136440D01*
X1030340D02*
Y409390D01*
X1136440D01*
X1171664Y791165D02*
X1270864D01*
Y589265D02*
Y791165D01*
X1171664Y589265D02*
X1270864D01*
X1171664D02*
Y791165D01*
X443380Y1233680D02*
X499180D01*
X443380Y1076280D02*
Y1233680D01*
Y1076280D02*
X499180D01*
Y1233680D01*
X420000Y972950D02*
X733750D01*
Y915900D02*
Y972950D01*
X420000Y915900D02*
X733750D01*
X420000D02*
Y972950D01*
X794590Y1053745D02*
Y1235745D01*
X762590Y1053745D02*
X794590D01*
X762590D02*
Y1235745D01*
X794590D01*
X899750Y1053745D02*
Y1235745D01*
X931750D01*
Y1053745D02*
Y1235745D01*
X899750Y1053745D02*
X931750D01*
X1129884Y947296D02*
X1311884D01*
Y915296D02*
Y947296D01*
X1129884Y915296D02*
X1311884D01*
X1129884D02*
Y947296D01*
Y1071189D02*
X1311884D01*
Y1039189D02*
Y1071189D01*
X1129884Y1039189D02*
X1311884D01*
X1129884D02*
Y1071189D01*
X406050Y1209680D02*
X407050D01*
Y1163680D02*
Y1209680D01*
X406050Y1163680D02*
X407050D01*
X406050Y1138680D02*
Y1163680D01*
Y1209680D02*
Y1233680D01*
X256550D02*
X406050D01*
X256550Y1138680D02*
Y1233680D01*
Y1138680D02*
X348050D01*
Y1128180D02*
Y1138680D01*
Y1128180D02*
X385050D01*
Y1138680D01*
X406050D01*
D42*
X562730Y877430D02*
X575570Y890270D01*
X1149809D01*
X1260964Y779115D01*
X720170Y720910D02*
X878100Y878840D01*
X1092200D01*
X1159510Y811530D01*
Y724969D02*
Y811530D01*
Y724969D02*
X1181564Y702915D01*
X1164389Y694690D02*
X1181564Y677515D01*
X1069340Y694690D02*
X1164389D01*
X1009650Y754380D02*
X1069340Y694690D01*
X1009650Y754380D02*
Y840740D01*
X982980Y867410D02*
X1009650Y840740D01*
X929640Y867410D02*
X982980D01*
X757740Y695510D02*
X929640Y867410D01*
X720170Y695510D02*
X757740D01*
X671910Y1082860D02*
X673180Y1081590D01*
X671910Y1082860D02*
Y1219545D01*
X918660Y466910D02*
X948770D01*
X818330Y567240D02*
X918660Y466910D01*
X720170Y567240D02*
X818330D01*
X908500Y441510D02*
X948770D01*
X806900Y543110D02*
X908500Y441510D01*
X720170Y543110D02*
X806900D01*
D43*
X633730Y486410D02*
D03*
X468730D02*
D03*
X778590Y1227245D02*
D03*
Y1062245D02*
D03*
X915750D02*
D03*
Y1227245D02*
D03*
X1138384Y931296D02*
D03*
X1303384D02*
D03*
X1138384Y1055189D02*
D03*
X1303384D02*
D03*
D44*
X509270Y637540D02*
D03*
X1309370Y407670D02*
D03*
X786130Y985520D02*
D03*
X1306830Y1186180D02*
D03*
D45*
X328635Y718820D02*
D03*
D46*
X354035D02*
D03*
X379435D02*
D03*
D47*
X329010Y879305D02*
D03*
X1120240Y530195D02*
D03*
X608330Y605790D02*
D03*
X1303864Y751640D02*
D03*
D48*
X329010Y853905D02*
D03*
Y828505D02*
D03*
Y803105D02*
D03*
X1120240Y504795D02*
D03*
Y479395D02*
D03*
Y453995D02*
D03*
X886065Y914400D02*
D03*
X911465D02*
D03*
X936865D02*
D03*
X608330Y631190D02*
D03*
Y656590D02*
D03*
Y681990D02*
D03*
X697310Y1219545D02*
D03*
X671910D02*
D03*
X646510D02*
D03*
X1018874Y1161385D02*
D03*
X993474D02*
D03*
X968074D02*
D03*
X1018874Y1069945D02*
D03*
X993474D02*
D03*
X968074D02*
D03*
X1303864Y726240D02*
D03*
Y700840D02*
D03*
Y675440D02*
D03*
X1096090Y393190D02*
D03*
X1070690D02*
D03*
X1045290D02*
D03*
D49*
X860665Y914400D02*
D03*
X722710Y1219545D02*
D03*
X1044274Y1161385D02*
D03*
Y1069945D02*
D03*
X1121490Y393190D02*
D03*
D50*
X1181564Y779115D02*
D03*
D51*
Y753715D02*
D03*
Y728315D02*
D03*
Y702915D02*
D03*
Y677515D02*
D03*
Y652115D02*
D03*
Y626715D02*
D03*
Y601315D02*
D03*
X1260964D02*
D03*
Y626715D02*
D03*
Y652115D02*
D03*
Y677515D02*
D03*
Y702915D02*
D03*
Y728315D02*
D03*
Y753715D02*
D03*
Y779115D02*
D03*
D52*
X469980Y1097230D02*
D03*
Y1135730D02*
D03*
Y1174230D02*
D03*
D53*
Y1212730D02*
D03*
D54*
X431880Y944430D02*
D03*
D55*
X721880D02*
D03*
D56*
X566500Y1182760D02*
D03*
Y1112070D02*
D03*
D57*
Y1207760D02*
D03*
Y1087070D02*
D03*
D58*
X1139469Y1189800D02*
D03*
X1215369D02*
D03*
D59*
X317570Y968345D02*
D03*
X342970D02*
D03*
X368370D02*
D03*
X1255630Y558135D02*
D03*
X1179430D02*
D03*
X910590Y949960D02*
D03*
Y1026160D02*
D03*
X1255630Y447645D02*
D03*
X1179430D02*
D03*
X1138254Y677515D02*
D03*
Y753715D02*
D03*
X635000Y719147D02*
D03*
Y795347D02*
D03*
X661670Y492760D02*
D03*
Y416560D02*
D03*
X1101424Y721965D02*
D03*
Y645765D02*
D03*
X1179430Y521305D02*
D03*
X1255630D02*
D03*
Y484475D02*
D03*
X1179430D02*
D03*
X962660Y949960D02*
D03*
Y1026160D02*
D03*
X1054154Y753715D02*
D03*
Y677515D02*
D03*
D60*
X449580Y533400D02*
D03*
X347980D02*
D03*
X449580Y457200D02*
D03*
X347980D02*
D03*
D61*
X582730Y817430D02*
D03*
X562730Y757430D02*
D03*
X440730D02*
D03*
Y877430D02*
D03*
X562730D02*
D03*
D62*
X698580Y1081590D02*
D03*
X673180D02*
D03*
X848440Y1133760D02*
D03*
X823040D02*
D03*
X607315Y556260D02*
D03*
Y530860D02*
D03*
X1215369Y990400D02*
D03*
Y1015800D02*
D03*
Y866507D02*
D03*
Y891908D02*
D03*
D63*
X366550Y1139180D02*
D03*
D64*
X336550Y1186180D02*
D03*
X396550D02*
D03*
D65*
X938610Y837750D02*
D03*
X730330D02*
D03*
X938610Y400870D02*
D03*
X730330D02*
D03*
D66*
X720170Y441510D02*
D03*
Y543110D02*
D03*
Y517710D02*
D03*
Y492310D02*
D03*
Y593910D02*
D03*
Y619310D02*
D03*
Y645980D02*
D03*
Y797110D02*
D03*
Y771710D02*
D03*
Y746310D02*
D03*
Y720910D02*
D03*
Y695510D02*
D03*
Y670110D02*
D03*
X948770Y441510D02*
D03*
Y543110D02*
D03*
Y517710D02*
D03*
Y492310D02*
D03*
Y568510D02*
D03*
Y593910D02*
D03*
Y619310D02*
D03*
Y797110D02*
D03*
Y771710D02*
D03*
Y746310D02*
D03*
Y722180D02*
D03*
Y695510D02*
D03*
Y670110D02*
D03*
D67*
X720170Y466910D02*
D03*
Y567240D02*
D03*
X948770Y466910D02*
D03*
Y643440D02*
D03*
M02*
