G04*
G04 #@! TF.GenerationSoftware,Altium Limited,Altium Designer,18.0.9 (584)*
G04*
G04 Layer_Physical_Order=2*
G04 Layer_Color=16711680*
%FSLAX44Y44*%
%MOMM*%
G71*
G01*
G75*
%ADD10C,0.2000*%
%ADD11C,0.1000*%
%ADD12C,0.1270*%
%ADD13C,0.4000*%
%ADD14C,0.2540*%
%ADD16C,0.0001*%
%ADD17C,0.0500*%
%ADD42C,0.5000*%
%ADD43C,1.2000*%
%ADD44C,1.5240*%
%ADD45R,1.5000X1.5000*%
%ADD46C,1.5000*%
%ADD47R,1.5750X1.5750*%
%ADD48C,1.5750*%
%ADD49R,1.5750X1.5750*%
%ADD50R,1.1600X1.1600*%
%ADD51C,1.1600*%
%ADD52C,2.1300*%
%ADD53R,2.1300X2.1300*%
%ADD54R,1.8750X1.8750*%
%ADD55C,1.8750*%
%ADD56C,1.1000*%
%ADD57R,1.1000X1.1000*%
%ADD58C,1.4170*%
%ADD59C,1.4000*%
%ADD60C,1.4500*%
%ADD61C,1.9500*%
%ADD62C,1.7780*%
%ADD63O,3.0160X1.5080*%
%ADD64O,1.5080X3.0160*%
%ADD65C,2.9210*%
%ADD66C,1.7526*%
%ADD67R,1.7526X1.7526*%
%ADD68C,0.0000*%
D10*
X1112809Y1189800D02*
G03*
X1250709Y1189800I68950J0D01*
G01*
D02*
G03*
X1112809Y1189800I-68950J-1530D01*
G01*
X284970Y948345D02*
X400970D01*
Y1033345D01*
X284970D02*
X400970D01*
X284970Y948345D02*
Y1033345D01*
X347280Y546800D02*
X450280D01*
Y443800D02*
Y546800D01*
X347280Y443800D02*
X450280D01*
X347280D02*
Y546800D01*
X596730Y741430D02*
Y893430D01*
X406730D02*
X596730D01*
X406730Y741430D02*
Y893430D01*
Y741430D02*
X596730D01*
D11*
X600500Y1195260D02*
G03*
X600500Y1195260I-34000J0D01*
G01*
Y1099570D02*
G03*
X600500Y1099570I-34000J0D01*
G01*
X518730Y473910D02*
X583730D01*
X518730D02*
Y498910D01*
X583730D01*
Y473910D02*
Y498910D01*
Y486410D02*
X633730D01*
X468730D02*
X518730D01*
X315310Y891755D02*
X342710D01*
Y790655D02*
Y891755D01*
X315310Y790655D02*
X342710D01*
X315310D02*
Y891755D01*
X1106540Y542645D02*
X1133940D01*
Y441545D02*
Y542645D01*
X1106540Y441545D02*
X1133940D01*
X1106540D02*
Y542645D01*
X848215Y900700D02*
Y928100D01*
X949315D01*
Y900700D02*
Y928100D01*
X848215Y900700D02*
X949315D01*
X594630Y593340D02*
X622030D01*
X594630D02*
Y694440D01*
X622030D01*
Y593340D02*
Y694440D01*
X735160Y1205845D02*
Y1233245D01*
X634060Y1205845D02*
X735160D01*
X634060D02*
Y1233245D01*
X735160D01*
X1056724Y1147685D02*
Y1175085D01*
X955624Y1147685D02*
X1056724D01*
X955624D02*
Y1175085D01*
X1056724D01*
Y1056245D02*
Y1083645D01*
X955624Y1056245D02*
X1056724D01*
X955624D02*
Y1083645D01*
X1056724D01*
X1290164Y764090D02*
X1317564D01*
Y662990D02*
Y764090D01*
X1290164Y662990D02*
X1317564D01*
X1290164D02*
Y764090D01*
X1133940Y379490D02*
Y406890D01*
X1032840Y379490D02*
X1133940D01*
X1032840D02*
Y406890D01*
X1133940D01*
X1185714Y788665D02*
X1256814D01*
Y591765D02*
Y788665D01*
X1185714Y591765D02*
X1256814D01*
X1185714D02*
Y788665D01*
Y775965D02*
X1198414Y788665D01*
X477430Y1231180D02*
X496680Y1211930D01*
X445880Y1231180D02*
X496680D01*
X445880Y1078780D02*
Y1231180D01*
Y1078780D02*
X496680D01*
Y1231180D01*
X531880Y969450D02*
X621880D01*
Y919400D02*
Y969450D01*
X531880Y919400D02*
X621880D01*
X531880D02*
Y969450D01*
Y944430D02*
X556900Y969450D01*
X431880Y944430D02*
X531880D01*
X621880D02*
X721880D01*
X791090Y1112245D02*
Y1177245D01*
X766090Y1112245D02*
X791090D01*
X766090D02*
Y1177245D01*
X791090D01*
X778590D02*
Y1227245D01*
Y1062245D02*
Y1112245D01*
X903250D02*
Y1177245D01*
X928250D01*
Y1112245D02*
Y1177245D01*
X903250Y1112245D02*
X928250D01*
X915750Y1062245D02*
Y1112245D01*
Y1177245D02*
Y1227245D01*
X1188384Y943796D02*
X1253384D01*
Y918796D02*
Y943796D01*
X1188384Y918796D02*
X1253384D01*
X1188384D02*
Y943796D01*
X1138384Y931296D02*
X1188384D01*
X1253384D02*
X1303384D01*
X1188384Y1067689D02*
X1253384D01*
Y1042689D02*
Y1067689D01*
X1188384Y1042689D02*
X1253384D01*
X1188384D02*
Y1067689D01*
X1138384Y1055189D02*
X1188384D01*
X1253384D02*
X1303384D01*
X1103469Y1115850D02*
X1251369D01*
Y1263750D01*
X1103469D02*
X1251369D01*
X1103469Y1115850D02*
Y1263750D01*
X274970Y930345D02*
X410970D01*
Y1043345D01*
X274970D02*
X410970D01*
X274970Y930345D02*
Y1043345D01*
X606730Y731430D02*
Y903430D01*
X396730D02*
X606730D01*
X396730Y731430D02*
Y903430D01*
Y731430D02*
X606730D01*
D12*
X259550Y1141180D02*
Y1231180D01*
X403550Y1141180D02*
Y1231180D01*
X259550D02*
X403550D01*
X259550Y1141180D02*
X403550D01*
X259550D02*
Y1231180D01*
X403550Y1141180D02*
Y1231180D01*
X259550D02*
X403550D01*
X259550Y1141180D02*
X403550D01*
X259550D02*
Y1231180D01*
X403550D01*
X385050Y1141180D02*
X403550D01*
Y1201680D02*
Y1231180D01*
X259550Y1141180D02*
X349050D01*
X403550D02*
Y1171680D01*
D13*
X414550Y1186180D02*
G03*
X414550Y1186180I-2000J0D01*
G01*
D14*
X466530Y1139180D02*
X469980Y1135730D01*
D16*
X358550Y1144180D02*
X374550D01*
X358550Y1134180D02*
Y1144180D01*
Y1134180D02*
X374550D01*
Y1144180D01*
X331550Y1178180D02*
Y1194180D01*
Y1178180D02*
X341550D01*
Y1194180D01*
X331550D02*
X341550D01*
X391550Y1178180D02*
Y1194180D01*
Y1178180D02*
X401550D01*
Y1194180D01*
X391550D02*
X401550D01*
D17*
X605500Y1195260D02*
G03*
X605500Y1195260I-39000J0D01*
G01*
Y1099570D02*
G03*
X605500Y1099570I-39000J0D01*
G01*
X460230Y470410D02*
X642230D01*
X460230D02*
Y502410D01*
X642230D01*
Y470410D02*
Y502410D01*
X312810Y894255D02*
X345210D01*
Y788155D02*
Y894255D01*
X312810Y788155D02*
X345210D01*
X312810D02*
Y894255D01*
X1104040Y545145D02*
X1136440D01*
Y439045D02*
Y545145D01*
X1104040Y439045D02*
X1136440D01*
X1104040D02*
Y545145D01*
X845715Y898200D02*
Y930600D01*
X951815D01*
Y898200D02*
Y930600D01*
X845715Y898200D02*
X951815D01*
X592130Y590840D02*
X624530D01*
X592130D02*
Y696940D01*
X624530D01*
Y590840D02*
Y696940D01*
X737660Y1203345D02*
Y1235745D01*
X631560Y1203345D02*
X737660D01*
X631560D02*
Y1235745D01*
X737660D01*
X1059224Y1145185D02*
Y1177585D01*
X953124Y1145185D02*
X1059224D01*
X953124D02*
Y1177585D01*
X1059224D01*
Y1053745D02*
Y1086145D01*
X953124Y1053745D02*
X1059224D01*
X953124D02*
Y1086145D01*
X1059224D01*
X1287664Y766590D02*
X1320064D01*
Y660490D02*
Y766590D01*
X1287664Y660490D02*
X1320064D01*
X1287664D02*
Y766590D01*
X1136440Y376990D02*
Y409390D01*
X1030340Y376990D02*
X1136440D01*
X1030340D02*
Y409390D01*
X1136440D01*
X1171664Y791165D02*
X1270864D01*
Y589265D02*
Y791165D01*
X1171664Y589265D02*
X1270864D01*
X1171664D02*
Y791165D01*
X443380Y1233680D02*
X499180D01*
X443380Y1076280D02*
Y1233680D01*
Y1076280D02*
X499180D01*
Y1233680D01*
X420000Y972950D02*
X733750D01*
Y915900D02*
Y972950D01*
X420000Y915900D02*
X733750D01*
X420000D02*
Y972950D01*
X794590Y1053745D02*
Y1235745D01*
X762590Y1053745D02*
X794590D01*
X762590D02*
Y1235745D01*
X794590D01*
X899750Y1053745D02*
Y1235745D01*
X931750D01*
Y1053745D02*
Y1235745D01*
X899750Y1053745D02*
X931750D01*
X1129884Y947296D02*
X1311884D01*
Y915296D02*
Y947296D01*
X1129884Y915296D02*
X1311884D01*
X1129884D02*
Y947296D01*
Y1071189D02*
X1311884D01*
Y1039189D02*
Y1071189D01*
X1129884Y1039189D02*
X1311884D01*
X1129884D02*
Y1071189D01*
X406050Y1209680D02*
X407050D01*
Y1163680D02*
Y1209680D01*
X406050Y1163680D02*
X407050D01*
X406050Y1138680D02*
Y1163680D01*
Y1209680D02*
Y1233680D01*
X256550D02*
X406050D01*
X256550Y1138680D02*
Y1233680D01*
Y1138680D02*
X348050D01*
Y1128180D02*
Y1138680D01*
Y1128180D02*
X385050D01*
Y1138680D01*
X406050D01*
D42*
X547704Y1111855D02*
X566715D01*
X348060Y485120D02*
Y561320D01*
X328635Y693420D02*
Y718820D01*
Y580745D02*
Y693420D01*
X557530D02*
X583257Y719147D01*
X328635Y693420D02*
X557530D01*
X583257Y719147D02*
X635000D01*
X328635Y580745D02*
X348060Y561320D01*
X328635Y718820D02*
X329010Y719195D01*
Y803105D01*
X510540Y825240D02*
X562730Y877430D01*
X510540Y759460D02*
Y825240D01*
X487680Y736600D02*
X510540Y759460D01*
X371815Y736600D02*
X487680D01*
X354035Y718820D02*
X371815Y736600D01*
X524120Y718820D02*
X562730Y757430D01*
X379435Y718820D02*
X524120D01*
X449580Y454660D02*
X504190D01*
X542290Y416560D01*
X661670D01*
X456470Y471170D02*
X633730D01*
Y486410D01*
Y466910D02*
Y471170D01*
X455690Y471950D02*
X456470Y471170D01*
X443470Y471950D02*
X455690D01*
X442690Y471170D02*
X443470Y471950D01*
X362010Y471170D02*
X442690D01*
X348060Y485120D02*
X362010Y471170D01*
X1044274Y1161385D02*
X1075690Y1129969D01*
Y970280D02*
Y1129969D01*
X1019810Y914400D02*
X1075690Y970280D01*
X936865Y914400D02*
X1019810D01*
X860240Y441510D02*
X860665Y441935D01*
Y914400D01*
X910590Y1026160D02*
X962660D01*
X944609Y1046480D02*
X962660Y1064531D01*
X968074Y1069945D01*
X962660Y1026160D02*
Y1064531D01*
X860665Y976235D02*
X910590Y1026160D01*
X860665Y914400D02*
Y976235D01*
X911465Y914400D02*
Y924165D01*
X937260Y949960D01*
X962660D01*
X886065Y914400D02*
Y925435D01*
X910590Y949960D01*
X930090Y746310D02*
X948770D01*
X886065Y790335D02*
X930090Y746310D01*
X886065Y790335D02*
Y914400D01*
X928820Y771710D02*
X948770D01*
X911465Y789065D02*
X928820Y771710D01*
X911465Y789065D02*
Y914400D01*
X1138774Y931296D02*
Y1055189D01*
X1138384Y873296D02*
Y931296D01*
Y873296D02*
X1209040Y802640D01*
Y653239D02*
Y802640D01*
Y653239D02*
X1260964Y601315D01*
X720170Y466910D02*
X739960D01*
X753110Y480060D01*
Y554990D01*
X740860Y567240D02*
X753110Y554990D01*
X720170Y567240D02*
X740860D01*
X1091520Y363220D02*
X1121490Y393190D01*
X938530Y363220D02*
X1091520D01*
X860240Y441510D02*
X938530Y363220D01*
X720170Y441510D02*
X860240D01*
X948770Y643440D02*
X951095Y645765D01*
X1101424D01*
X911860Y503820D02*
X948770Y466910D01*
X911860Y503820D02*
Y621030D01*
X934270Y643440D01*
X948770D01*
X607315Y530860D02*
X619565Y543110D01*
X720170D01*
X719720Y492760D02*
X720170Y492310D01*
X661670Y492760D02*
X719720D01*
X633730Y466910D02*
X720170D01*
X468730Y486410D02*
X538580Y556260D01*
X607315D01*
X612917Y817430D02*
X635000Y795347D01*
X582730Y817430D02*
X612917D01*
X635000Y795347D02*
X636763Y797110D01*
X720170D01*
X608330Y605790D02*
X620210Y593910D01*
X720170D01*
X618355Y621165D02*
X720170D01*
X608330Y631190D02*
X618355Y621165D01*
X720170Y619310D02*
Y621165D01*
X608330Y656590D02*
X618940Y645980D01*
X720170D01*
X608330Y681990D02*
X620210Y670110D01*
X720170D01*
X719282Y593022D02*
X720170Y593910D01*
X882650Y1046480D02*
X944609D01*
X823040Y1106090D02*
X882650Y1046480D01*
X823040Y1106090D02*
Y1133760D01*
X632160Y854710D02*
X721880Y944430D01*
X576580Y854710D02*
X632160D01*
X546100Y824230D02*
X576580Y854710D01*
X546100Y774060D02*
Y824230D01*
Y774060D02*
X562730Y757430D01*
X566500Y1112070D02*
Y1182760D01*
X550244Y1069945D02*
X567369Y1087070D01*
X633680D01*
X566500D02*
X567369D01*
X680370Y1133760D02*
X823040D01*
X633680Y1087070D02*
X680370Y1133760D01*
X673180Y993130D02*
X721880Y944430D01*
X673180Y993130D02*
Y1081590D01*
X495730Y944430D02*
X562730Y877430D01*
X431880Y944430D02*
X495730D01*
X342970Y944950D02*
Y968345D01*
X302260Y904240D02*
X342970Y944950D01*
X302260Y829855D02*
X329010Y803105D01*
X302260Y829855D02*
Y904240D01*
X329010Y879305D02*
X352255D01*
X368370Y895420D01*
Y968345D01*
X440730Y757430D02*
Y808950D01*
X421175Y828505D02*
X440730Y808950D01*
X329010Y828505D02*
X421175D01*
X417205Y853905D02*
X440730Y877430D01*
X329010Y853905D02*
X417205D01*
X1138384Y1055189D02*
X1139469Y1056274D01*
Y1189800D01*
X1215369D02*
X1346254Y1058915D01*
Y722440D02*
Y1058915D01*
X1324654Y700840D02*
X1346254Y722440D01*
X1303864Y700840D02*
X1324654D01*
X1328474Y742760D02*
Y965010D01*
X1311954Y726240D02*
X1328474Y742760D01*
X1303084Y990400D02*
X1328474Y965010D01*
X1215369Y990400D02*
X1303084D01*
X1303864Y726240D02*
X1311954D01*
X1215369Y866507D02*
X1268226D01*
X1303864Y830870D01*
Y751640D02*
Y830870D01*
X1263995Y891908D02*
X1303384Y931296D01*
X1215369Y891908D02*
X1263995D01*
Y1015800D02*
X1303384Y1055189D01*
X1215369Y1015800D02*
X1263995D01*
X1016031Y1189800D02*
X1139469D01*
X949356Y1256475D02*
X1016031Y1189800D01*
X759640Y1256475D02*
X949356D01*
X722710Y1219545D02*
X759640Y1256475D01*
X992165Y753715D02*
X1054154D01*
X948770Y797110D02*
X992165Y753715D01*
X1076539Y779115D02*
X1181564D01*
X1054154Y756730D02*
X1076539Y779115D01*
X1054154Y753715D02*
Y756730D01*
X1102414Y677515D02*
X1138254D01*
X1054154D02*
X1102414D01*
X1101424Y676525D02*
X1102414Y677515D01*
X1101424Y645765D02*
Y676525D01*
X1138254Y624370D02*
Y677515D01*
Y624370D02*
X1161309Y601315D01*
X1181564D01*
X968074Y1069945D02*
X993474D01*
X1018874D01*
X1044274D01*
X1089699Y530195D02*
X1120240D01*
X1000584Y619310D02*
X1089699Y530195D01*
X948770Y619310D02*
X1000584D01*
X1083349Y504795D02*
X1120240D01*
X994234Y593910D02*
X1083349Y504795D01*
X948770Y593910D02*
X994234D01*
X1078269Y479395D02*
X1120240D01*
X989154Y568510D02*
X1078269Y479395D01*
X948770Y568510D02*
X989154D01*
X1070649Y453995D02*
X1120240D01*
X981534Y543110D02*
X1070649Y453995D01*
X948770Y543110D02*
X981534D01*
X971570Y517710D02*
X1096090Y393190D01*
X948770Y517710D02*
X971570D01*
Y492310D02*
X1070690Y393190D01*
X948770Y492310D02*
X971570D01*
Y466910D02*
X1045290Y393190D01*
X948770Y466910D02*
X971570D01*
X1074969Y695510D02*
X1101424Y721965D01*
X948770Y695510D02*
X1074969D01*
X1101424Y753715D02*
X1138254D01*
X1069889Y722180D02*
X1101424Y753715D01*
X948770Y722180D02*
X1069889D01*
X1175214Y721965D02*
X1181564Y728315D01*
X1101424Y721965D02*
X1175214D01*
X1212450Y601315D02*
X1255630Y558135D01*
X1181564Y601315D02*
X1212450D01*
X1120240Y530195D02*
X1148180Y558135D01*
X1179430D01*
X1120240Y504795D02*
X1121197D01*
X1137707Y521305D01*
X1179430D01*
X1120240Y479395D02*
X1125320Y484475D01*
X1179430D01*
X1120240Y453995D02*
X1126590Y447645D01*
X1179430D01*
X1255630D02*
Y484475D01*
Y521305D01*
Y558135D01*
X1138254Y753715D02*
X1181564D01*
X1301789Y677515D02*
X1303864Y675440D01*
X1260964Y677515D02*
X1301789D01*
Y702915D02*
X1303864Y700840D01*
X1260964Y702915D02*
X1301789D01*
Y728315D02*
X1303864Y726240D01*
X1260964Y728315D02*
X1301789D01*
Y753715D02*
X1303864Y751640D01*
X1260964Y753715D02*
X1301789D01*
X968074Y1161385D02*
Y1223615D01*
X945214Y1246475D02*
X968074Y1223615D01*
X898224Y1246475D02*
X945214D01*
X878994Y1227245D02*
X898224Y1246475D01*
X778590Y1227245D02*
X878994D01*
X968074Y1161385D02*
X993474D01*
X1018874D01*
X1044274D01*
X915750Y1109061D02*
X968074Y1161385D01*
X915750Y1062245D02*
Y1109061D01*
Y1201070D02*
Y1227245D01*
X848440Y1133760D02*
X915750Y1201070D01*
X759245Y1081590D02*
X778590Y1062245D01*
X698580Y1081590D02*
X759245D01*
X734105Y1182760D02*
X778590Y1227245D01*
X566500Y1182760D02*
X734105D01*
X420704Y1069945D02*
X550244D01*
X533079Y1097230D02*
X547704Y1111855D01*
X368370Y1017611D02*
X420704Y1069945D01*
X368370Y968345D02*
Y1017611D01*
X469980Y1097230D02*
X533079D01*
X408619D02*
X469980D01*
X342970Y1031581D02*
X408619Y1097230D01*
X342970Y968345D02*
Y1031581D01*
X318379Y1212730D02*
X469980D01*
X296244Y1190595D02*
X318379Y1212730D01*
X296244Y1148685D02*
Y1190595D01*
Y1148685D02*
X317570Y1127359D01*
Y968345D02*
Y1127359D01*
X396550Y1186180D02*
X408500Y1174230D01*
X469980D01*
X366550Y1139180D02*
X466530D01*
X366550D02*
Y1156180D01*
X336550Y1186180D02*
X366550Y1156180D01*
X697310Y1219545D02*
X722710D01*
X671910D02*
X697310D01*
X646510D02*
X671910D01*
X566500Y1207760D02*
X578285Y1219545D01*
X646510D01*
X561530Y1212730D02*
X566500Y1207760D01*
X469980Y1212730D02*
X561530D01*
D43*
X633730Y486410D02*
D03*
X468730D02*
D03*
X778590Y1227245D02*
D03*
Y1062245D02*
D03*
X915750D02*
D03*
Y1227245D02*
D03*
X1138384Y931296D02*
D03*
X1303384D02*
D03*
X1138384Y1055189D02*
D03*
X1303384D02*
D03*
D44*
X509270Y637540D02*
D03*
X1309370Y407670D02*
D03*
X786130Y985520D02*
D03*
X1306830Y1186180D02*
D03*
D45*
X328635Y718820D02*
D03*
D46*
X354035D02*
D03*
X379435D02*
D03*
D47*
X329010Y879305D02*
D03*
X1120240Y530195D02*
D03*
X608330Y605790D02*
D03*
X1303864Y751640D02*
D03*
D48*
X329010Y853905D02*
D03*
Y828505D02*
D03*
Y803105D02*
D03*
X1120240Y504795D02*
D03*
Y479395D02*
D03*
Y453995D02*
D03*
X886065Y914400D02*
D03*
X911465D02*
D03*
X936865D02*
D03*
X608330Y631190D02*
D03*
Y656590D02*
D03*
Y681990D02*
D03*
X697310Y1219545D02*
D03*
X671910D02*
D03*
X646510D02*
D03*
X1018874Y1161385D02*
D03*
X993474D02*
D03*
X968074D02*
D03*
X1018874Y1069945D02*
D03*
X993474D02*
D03*
X968074D02*
D03*
X1303864Y726240D02*
D03*
Y700840D02*
D03*
Y675440D02*
D03*
X1096090Y393190D02*
D03*
X1070690D02*
D03*
X1045290D02*
D03*
D49*
X860665Y914400D02*
D03*
X722710Y1219545D02*
D03*
X1044274Y1161385D02*
D03*
Y1069945D02*
D03*
X1121490Y393190D02*
D03*
D50*
X1181564Y779115D02*
D03*
D51*
Y753715D02*
D03*
Y728315D02*
D03*
Y702915D02*
D03*
Y677515D02*
D03*
Y652115D02*
D03*
Y626715D02*
D03*
Y601315D02*
D03*
X1260964D02*
D03*
Y626715D02*
D03*
Y652115D02*
D03*
Y677515D02*
D03*
Y702915D02*
D03*
Y728315D02*
D03*
Y753715D02*
D03*
Y779115D02*
D03*
D52*
X469980Y1097230D02*
D03*
Y1135730D02*
D03*
Y1174230D02*
D03*
D53*
Y1212730D02*
D03*
D54*
X431880Y944430D02*
D03*
D55*
X721880D02*
D03*
D56*
X566500Y1182760D02*
D03*
Y1112070D02*
D03*
D57*
Y1207760D02*
D03*
Y1087070D02*
D03*
D58*
X1139469Y1189800D02*
D03*
X1215369D02*
D03*
D59*
X317570Y968345D02*
D03*
X342970D02*
D03*
X368370D02*
D03*
X1255630Y558135D02*
D03*
X1179430D02*
D03*
X910590Y949960D02*
D03*
Y1026160D02*
D03*
X1255630Y447645D02*
D03*
X1179430D02*
D03*
X1138254Y677515D02*
D03*
Y753715D02*
D03*
X635000Y719147D02*
D03*
Y795347D02*
D03*
X661670Y492760D02*
D03*
Y416560D02*
D03*
X1101424Y721965D02*
D03*
Y645765D02*
D03*
X1179430Y521305D02*
D03*
X1255630D02*
D03*
Y484475D02*
D03*
X1179430D02*
D03*
X962660Y949960D02*
D03*
Y1026160D02*
D03*
X1054154Y753715D02*
D03*
Y677515D02*
D03*
D60*
X449580Y533400D02*
D03*
X347980D02*
D03*
X449580Y457200D02*
D03*
X347980D02*
D03*
D61*
X582730Y817430D02*
D03*
X562730Y757430D02*
D03*
X440730D02*
D03*
Y877430D02*
D03*
X562730D02*
D03*
D62*
X698580Y1081590D02*
D03*
X673180D02*
D03*
X848440Y1133760D02*
D03*
X823040D02*
D03*
X607315Y556260D02*
D03*
Y530860D02*
D03*
X1215369Y990400D02*
D03*
Y1015800D02*
D03*
Y866507D02*
D03*
Y891908D02*
D03*
D63*
X366550Y1139180D02*
D03*
D64*
X336550Y1186180D02*
D03*
X396550D02*
D03*
D65*
X938610Y837750D02*
D03*
X730330D02*
D03*
X938610Y400870D02*
D03*
X730330D02*
D03*
D66*
X720170Y441510D02*
D03*
Y543110D02*
D03*
Y517710D02*
D03*
Y492310D02*
D03*
Y593910D02*
D03*
Y619310D02*
D03*
Y645980D02*
D03*
Y797110D02*
D03*
Y771710D02*
D03*
Y746310D02*
D03*
Y720910D02*
D03*
Y695510D02*
D03*
Y670110D02*
D03*
X948770Y441510D02*
D03*
Y543110D02*
D03*
Y517710D02*
D03*
Y492310D02*
D03*
Y568510D02*
D03*
Y593910D02*
D03*
Y619310D02*
D03*
Y797110D02*
D03*
Y771710D02*
D03*
Y746310D02*
D03*
Y722180D02*
D03*
Y695510D02*
D03*
Y670110D02*
D03*
D67*
X720170Y466910D02*
D03*
Y567240D02*
D03*
X948770Y466910D02*
D03*
Y643440D02*
D03*
D68*
X993474Y1069945D02*
X1002364Y1061055D01*
M02*
